<svg width="16" height="13" viewBox="0 0 16 13" fill="none" xmlns="http://www.w3.org/2000/svg">
<path d="M1 5.10645V6.84375C1 6.42106 1.16791 6.01568 1.4668 5.7168C1.76568 5.41791 2.17106 5.25 2.59375 5.25H13.2188C13.6414 5.25 14.0468 5.41791 14.3457 5.7168C14.6446 6.01568 14.8125 6.42106 14.8125 6.84375V5.35528M8.65708 2.81333L7.15542 1.31167C7.05676 1.21289 6.93961 1.13453 6.81066 1.08105C6.68171 1.02757 6.54348 1.00003 6.40387 1H2.59375C2.17106 1 1.76568 1.16791 1.4668 1.4668C1.16791 1.76568 1 2.17106 1 2.59375V11.0938C1 11.5164 1.16791 11.9218 1.4668 12.2207C1.76568 12.5196 2.17106 12.6875 2.59375 12.6875H13.2188C13.6414 12.6875 14.0468 12.5196 14.3457 12.2207C14.6446 11.9218 14.8125 11.5164 14.8125 11.0938V4.71875C14.8125 4.29606 14.6446 3.89068 14.3457 3.5918C14.0468 3.29291 13.6414 3.125 13.2188 3.125H9.40862C9.12693 3.12475 8.85615 3.01265 8.65708 2.81333Z" fill="#7C4DFF"/>
<path d="M1 5.10645V6.84375C1 6.42106 1.16791 6.01568 1.4668 5.7168C1.76568 5.41791 2.17106 5.25 2.59375 5.25H13.2188C13.6414 5.25 14.0468 5.41791 14.3457 5.7168C14.6446 6.01568 14.8125 6.42106 14.8125 6.84375V5.35528M8.65708 2.81333L7.15542 1.31167C7.05676 1.21289 6.93961 1.13453 6.81066 1.08105C6.68171 1.02757 6.54348 1.00003 6.40387 1H2.59375C2.17106 1 1.76568 1.16791 1.4668 1.4668C1.16791 1.76568 1 2.17106 1 2.59375V11.0938C1 11.5164 1.16791 11.9218 1.4668 12.2207C1.76568 12.5196 2.17106 12.6875 2.59375 12.6875H13.2188C13.6414 12.6875 14.0468 12.5196 14.3457 12.2207C14.6446 11.9218 14.8125 11.5164 14.8125 11.0938V4.71875C14.8125 4.29606 14.6446 3.89068 14.3457 3.5918C14.0468 3.29291 13.6414 3.125 13.2188 3.125H9.40862C9.12693 3.12475 8.85615 3.01265 8.65708 2.81333Z" stroke="#CAB7FF" stroke-width="0.5" stroke-linecap="round" stroke-linejoin="round"/>
</svg>
