<svg width="43" height="50" viewBox="0 0 43 50" fill="none" xmlns="http://www.w3.org/2000/svg">
<path d="M42 30.5385V24.0769C42 21.8736 41.0281 19.7605 39.2981 18.2025C37.568 16.6445 35.2216 15.7692 32.775 15.7692H28.675C27.8595 15.7692 27.0773 15.4775 26.5006 14.9581C25.924 14.4388 25.6 13.7344 25.6 13V9.30769C25.6 7.10436 24.6281 4.99126 22.8981 3.43327C21.168 1.87527 18.8216 1 16.375 1H11.25M17.4 1H4.075C2.3776 1 1 2.24062 1 3.76923V46.2308C1 47.7594 2.3776 49 4.075 49H38.925C40.6224 49 42 47.7594 42 46.2308V23.1538C42 17.2783 39.4082 11.6434 34.7948 7.48871C30.1814 3.33406 23.9243 1 17.4 1Z" fill="#CAB7FF"/>
<path d="M42 30.5385V24.0769C42 21.8736 41.0281 19.7605 39.2981 18.2025C37.568 16.6445 35.2216 15.7692 32.775 15.7692H28.675C27.8595 15.7692 27.0773 15.4775 26.5006 14.9581C25.924 14.4388 25.6 13.7344 25.6 13V9.30769C25.6 7.10436 24.6281 4.99126 22.8981 3.43327C21.168 1.87527 18.8216 1 16.375 1H11.25M17.4 1H4.075C2.3776 1 1 2.24062 1 3.76923V46.2308C1 47.7594 2.3776 49 4.075 49H38.925C40.6224 49 42 47.7594 42 46.2308V23.1538C42 17.2783 39.4082 11.6434 34.7948 7.48871C30.1814 3.33406 23.9243 1 17.4 1Z" stroke="#253143" stroke-linecap="round" stroke-linejoin="round"/>
<path d="M9.25284 23.2727H11.0767V29.358C11.0767 29.9205 10.9503 30.4091 10.6974 30.8239C10.4474 31.2386 10.0994 31.5582 9.65341 31.7827C9.20739 32.0071 8.68892 32.1193 8.09801 32.1193C7.57244 32.1193 7.09517 32.027 6.66619 31.8423C6.24006 31.6548 5.90199 31.3707 5.65199 30.9901C5.40199 30.6065 5.27841 30.125 5.28125 29.5455H7.1179C7.12358 29.7756 7.17045 29.973 7.25852 30.1378C7.34943 30.2997 7.47301 30.4247 7.62926 30.5128C7.78835 30.598 7.97585 30.6406 8.19176 30.6406C8.41903 30.6406 8.6108 30.5923 8.76705 30.4957C8.92614 30.3963 9.04688 30.2514 9.12926 30.0611C9.21165 29.8707 9.25284 29.6364 9.25284 29.358V23.2727ZM12.6023 32V23.2727H16.0455C16.7074 23.2727 17.2713 23.3991 17.7372 23.652C18.2031 23.902 18.5582 24.25 18.8026 24.696C19.0497 25.1392 19.1733 25.6506 19.1733 26.2301C19.1733 26.8097 19.0483 27.321 18.7983 27.7642C18.5483 28.2074 18.1861 28.5526 17.7116 28.7997C17.2401 29.0469 16.669 29.1705 15.9986 29.1705H13.804V27.6918H15.7003C16.0554 27.6918 16.348 27.6307 16.5781 27.5085C16.8111 27.3835 16.9844 27.2116 17.098 26.9929C17.2145 26.7713 17.2727 26.517 17.2727 26.2301C17.2727 25.9403 17.2145 25.6875 17.098 25.4716C16.9844 25.2528 16.8111 25.0838 16.5781 24.9645C16.3452 24.8423 16.0497 24.7812 15.6918 24.7812H14.4474V32H12.6023ZM20.3718 32V23.2727H26.2525V24.794H22.217V26.8736H25.9499V28.3949H22.217V30.4787H26.2695V32H20.3718ZM33.5064 26.0938C33.4467 25.8864 33.3629 25.7031 33.255 25.544C33.147 25.3821 33.0149 25.2457 32.8587 25.1349C32.7053 25.0213 32.5291 24.9347 32.3303 24.875C32.1342 24.8153 31.9169 24.7855 31.6783 24.7855C31.2322 24.7855 30.8402 24.8963 30.5021 25.1179C30.1669 25.3395 29.9055 25.6619 29.718 26.0852C29.5305 26.5057 29.4368 27.0199 29.4368 27.6278C29.4368 28.2358 29.5291 28.7528 29.7138 29.179C29.8984 29.6051 30.1598 29.9304 30.4979 30.1548C30.8359 30.3764 31.2351 30.4872 31.6953 30.4872C32.1129 30.4872 32.4695 30.4134 32.7649 30.2656C33.0632 30.1151 33.2905 29.9034 33.4467 29.6307C33.6058 29.358 33.6854 29.0355 33.6854 28.6634L34.0604 28.7188H31.8104V27.3295H35.4624V28.429C35.4624 29.196 35.3004 29.8551 34.9766 30.4062C34.6527 30.9545 34.2067 31.3778 33.6385 31.6761C33.0703 31.9716 32.4197 32.1193 31.6868 32.1193C30.8686 32.1193 30.1499 31.9389 29.5305 31.5781C28.9112 31.2145 28.4283 30.6989 28.0817 30.0312C27.7379 29.3608 27.5661 28.5653 27.5661 27.6449C27.5661 26.9375 27.6683 26.3068 27.8729 25.7528C28.0803 25.196 28.37 24.7244 28.7422 24.3381C29.1143 23.9517 29.5476 23.6577 30.0419 23.456C30.5362 23.2543 31.0717 23.1534 31.6484 23.1534C32.1428 23.1534 32.603 23.2259 33.0291 23.3707C33.4553 23.5128 33.8331 23.7145 34.1626 23.9759C34.495 24.2372 34.7663 24.5483 34.9766 24.9091C35.1868 25.267 35.3217 25.6619 35.3814 26.0938H33.5064Z" fill="#253143"/>
</svg>
