<svg width="43" height="50" viewBox="0 0 43 50" fill="none" xmlns="http://www.w3.org/2000/svg">
<path d="M42 30.5385V24.0769C42 21.8736 41.0281 19.7605 39.2981 18.2025C37.568 16.6445 35.2216 15.7692 32.775 15.7692H28.675C27.8595 15.7692 27.0773 15.4775 26.5006 14.9581C25.924 14.4388 25.6 13.7344 25.6 13V9.30769C25.6 7.10436 24.6281 4.99126 22.8981 3.43327C21.168 1.87527 18.8216 1 16.375 1H11.25M17.4 1H4.075C2.3776 1 1 2.24062 1 3.76923V46.2308C1 47.7594 2.3776 49 4.075 49H38.925C40.6224 49 42 47.7594 42 46.2308V23.1538C42 17.2783 39.4082 11.6434 34.7948 7.48871C30.1814 3.33406 23.9243 1 17.4 1Z" fill="#CAB7FF"/>
<path d="M42 30.5385V24.0769C42 21.8736 41.0281 19.7605 39.2981 18.2025C37.568 16.6445 35.2216 15.7692 32.775 15.7692H28.675C27.8595 15.7692 27.0773 15.4775 26.5006 14.9581C25.924 14.4388 25.6 13.7344 25.6 13V9.30769C25.6 7.10436 24.6281 4.99126 22.8981 3.43327C21.168 1.87527 18.8216 1 16.375 1H11.25M17.4 1H4.075C2.3776 1 1 2.24062 1 3.76923V46.2308C1 47.7594 2.3776 49 4.075 49H38.925C40.6224 49 42 47.7594 42 46.2308V23.1538C42 17.2783 39.4082 11.6434 34.7948 7.48871C30.1814 3.33406 23.9243 1 17.4 1Z" stroke="#253143" stroke-linecap="round" stroke-linejoin="round"/>
<path d="M14.2528 23.2727H16.0767V29.358C16.0767 29.9205 15.9503 30.4091 15.6974 30.8239C15.4474 31.2386 15.0994 31.5582 14.6534 31.7827C14.2074 32.0071 13.6889 32.1193 13.098 32.1193C12.5724 32.1193 12.0952 32.027 11.6662 31.8423C11.2401 31.6548 10.902 31.3707 10.652 30.9901C10.402 30.6065 10.2784 30.125 10.2812 29.5455H12.1179C12.1236 29.7756 12.1705 29.973 12.2585 30.1378C12.3494 30.2997 12.473 30.4247 12.6293 30.5128C12.7884 30.598 12.9759 30.6406 13.1918 30.6406C13.419 30.6406 13.6108 30.5923 13.767 30.4957C13.9261 30.3963 14.0469 30.2514 14.1293 30.0611C14.2116 29.8707 14.2528 29.6364 14.2528 29.358V23.2727ZM17.6023 32V23.2727H21.0455C21.7074 23.2727 22.2713 23.3991 22.7372 23.652C23.2031 23.902 23.5582 24.25 23.8026 24.696C24.0497 25.1392 24.1733 25.6506 24.1733 26.2301C24.1733 26.8097 24.0483 27.321 23.7983 27.7642C23.5483 28.2074 23.1861 28.5526 22.7116 28.7997C22.2401 29.0469 21.669 29.1705 20.9986 29.1705H18.804V27.6918H20.7003C21.0554 27.6918 21.348 27.6307 21.5781 27.5085C21.8111 27.3835 21.9844 27.2116 22.098 26.9929C22.2145 26.7713 22.2727 26.517 22.2727 26.2301C22.2727 25.9403 22.2145 25.6875 22.098 25.4716C21.9844 25.2528 21.8111 25.0838 21.5781 24.9645C21.3452 24.8423 21.0497 24.7812 20.6918 24.7812H19.4474V32H17.6023ZM31.1587 26.0938C31.0991 25.8864 31.0153 25.7031 30.9073 25.544C30.7994 25.3821 30.6673 25.2457 30.511 25.1349C30.3576 25.0213 30.1815 24.9347 29.9826 24.875C29.7866 24.8153 29.5692 24.7855 29.3306 24.7855C28.8846 24.7855 28.4925 24.8963 28.1545 25.1179C27.8192 25.3395 27.5579 25.6619 27.3704 26.0852C27.1829 26.5057 27.0891 27.0199 27.0891 27.6278C27.0891 28.2358 27.1815 28.7528 27.3661 29.179C27.5508 29.6051 27.8121 29.9304 28.1502 30.1548C28.4883 30.3764 28.8874 30.4872 29.3477 30.4872C29.7653 30.4872 30.1218 30.4134 30.4173 30.2656C30.7156 30.1151 30.9428 29.9034 31.0991 29.6307C31.2582 29.358 31.3377 29.0355 31.3377 28.6634L31.7127 28.7188H29.4627V27.3295H33.1147V28.429C33.1147 29.196 32.9528 29.8551 32.6289 30.4062C32.305 30.9545 31.859 31.3778 31.2908 31.6761C30.7227 31.9716 30.0721 32.1193 29.3391 32.1193C28.521 32.1193 27.8022 31.9389 27.1829 31.5781C26.5636 31.2145 26.0806 30.6989 25.734 30.0312C25.3903 29.3608 25.2184 28.5653 25.2184 27.6449C25.2184 26.9375 25.3207 26.3068 25.5252 25.7528C25.7326 25.196 26.0224 24.7244 26.3945 24.3381C26.7667 23.9517 27.1999 23.6577 27.6942 23.456C28.1886 23.2543 28.7241 23.1534 29.3008 23.1534C29.7951 23.1534 30.2553 23.2259 30.6815 23.3707C31.1076 23.5128 31.4854 23.7145 31.815 23.9759C32.1474 24.2372 32.4187 24.5483 32.6289 24.9091C32.8391 25.267 32.9741 25.6619 33.0337 26.0938H31.1587Z" fill="#253143"/>
</svg>
