<svg width="19" height="20" viewBox="0 0 19 20" fill="none" xmlns="http://www.w3.org/2000/svg">
<path d="M11.5 7V3.25C11.5 2.65326 11.2629 2.08097 10.841 1.65901C10.419 1.23705 9.84674 1 9.25 1H3.25C2.65326 1 2.08097 1.23705 1.65901 1.65901C1.23705 2.08097 1 2.65326 1 3.25V16.75C1 17.3467 1.23705 17.919 1.65901 18.341C2.08097 18.7629 2.65326 19 3.25 19H9.25C9.84674 19 10.419 18.7629 10.841 18.341C11.2629 17.919 11.5 17.3467 11.5 16.75V13M7.75 7L4.75 10M4.75 10L7.75 13M4.75 10H17.5" stroke="#253143" stroke-width="1.5" stroke-linecap="round" stroke-linejoin="round"/>
</svg>
