<svg width="43" height="50" viewBox="0 0 43 50" fill="none" xmlns="http://www.w3.org/2000/svg">
<path d="M42 30.5385V24.0769C42 21.8736 41.0281 19.7605 39.2981 18.2025C37.568 16.6445 35.2216 15.7692 32.775 15.7692H28.675C27.8595 15.7692 27.0773 15.4775 26.5006 14.9581C25.924 14.4388 25.6 13.7344 25.6 13V9.30769C25.6 7.10436 24.6281 4.99126 22.8981 3.43327C21.168 1.87527 18.8216 1 16.375 1H11.25M17.4 1H4.075C2.3776 1 1 2.24062 1 3.76923V46.2308C1 47.7594 2.3776 49 4.075 49H38.925C40.6224 49 42 47.7594 42 46.2308V23.1538C42 17.2783 39.4082 11.6434 34.7948 7.48871C30.1814 3.33406 23.9243 1 17.4 1Z" fill="#CAB7FF"/>
<path d="M42 30.5385V24.0769C42 21.8736 41.0281 19.7605 39.2981 18.2025C37.568 16.6445 35.2216 15.7692 32.775 15.7692H28.675C27.8595 15.7692 27.0773 15.4775 26.5006 14.9581C25.924 14.4388 25.6 13.7344 25.6 13V9.30769C25.6 7.10436 24.6281 4.99126 22.8981 3.43327C21.168 1.87527 18.8216 1 16.375 1H11.25M17.4 1H4.075C2.3776 1 1 2.24062 1 3.76923V46.2308C1 47.7594 2.3776 49 4.075 49H38.925C40.6224 49 42 47.7594 42 46.2308V23.1538C42 17.2783 39.4082 11.6434 34.7948 7.48871C30.1814 3.33406 23.9243 1 17.4 1Z" stroke="#253143" stroke-linecap="round" stroke-linejoin="round"/>
<path d="M8.75852 32V23.2727H12.2017C12.8636 23.2727 13.4276 23.3991 13.8935 23.652C14.3594 23.902 14.7145 24.25 14.9588 24.696C15.206 25.1392 15.3295 25.6506 15.3295 26.2301C15.3295 26.8097 15.2045 27.321 14.9545 27.7642C14.7045 28.2074 14.3423 28.5526 13.8679 28.7997C13.3963 29.0469 12.8253 29.1705 12.1548 29.1705H9.96023V27.6918H11.8565C12.2116 27.6918 12.5043 27.6307 12.7344 27.5085C12.9673 27.3835 13.1406 27.2116 13.2543 26.9929C13.3707 26.7713 13.429 26.517 13.429 26.2301C13.429 25.9403 13.3707 25.6875 13.2543 25.4716C13.1406 25.2528 12.9673 25.0838 12.7344 24.9645C12.5014 24.8423 12.206 24.7812 11.848 24.7812H10.6037V32H8.75852ZM23.8278 23.2727V32H22.234L18.4371 26.5071H18.3732V32H16.5281V23.2727H18.1474L21.9144 28.7614H21.9911V23.2727H23.8278ZM31.1392 26.0938C31.0795 25.8864 30.9957 25.7031 30.8878 25.544C30.7798 25.3821 30.6477 25.2457 30.4915 25.1349C30.3381 25.0213 30.1619 24.9347 29.9631 24.875C29.767 24.8153 29.5497 24.7855 29.3111 24.7855C28.8651 24.7855 28.473 24.8963 28.1349 25.1179C27.7997 25.3395 27.5384 25.6619 27.3509 26.0852C27.1634 26.5057 27.0696 27.0199 27.0696 27.6278C27.0696 28.2358 27.1619 28.7528 27.3466 29.179C27.5313 29.6051 27.7926 29.9304 28.1307 30.1548C28.4688 30.3764 28.8679 30.4872 29.3281 30.4872C29.7457 30.4872 30.1023 30.4134 30.3977 30.2656C30.696 30.1151 30.9233 29.9034 31.0795 29.6307C31.2386 29.358 31.3182 29.0355 31.3182 28.6634L31.6932 28.7188H29.4432V27.3295H33.0952V28.429C33.0952 29.196 32.9332 29.8551 32.6094 30.4062C32.2855 30.9545 31.8395 31.3778 31.2713 31.6761C30.7031 31.9716 30.0526 32.1193 29.3196 32.1193C28.5014 32.1193 27.7827 31.9389 27.1634 31.5781C26.544 31.2145 26.0611 30.6989 25.7145 30.0312C25.3707 29.3608 25.1989 28.5653 25.1989 27.6449C25.1989 26.9375 25.3011 26.3068 25.5057 25.7528C25.7131 25.196 26.0028 24.7244 26.375 24.3381C26.7472 23.9517 27.1804 23.6577 27.6747 23.456C28.169 23.2543 28.7045 23.1534 29.2812 23.1534C29.7756 23.1534 30.2358 23.2259 30.6619 23.3707C31.0881 23.5128 31.4659 23.7145 31.7955 23.9759C32.1278 24.2372 32.3991 24.5483 32.6094 24.9091C32.8196 25.267 32.9545 25.6619 33.0142 26.0938H31.1392Z" fill="#253143"/>
</svg>
