<svg width="16" height="13" viewBox="0 0 16 13" fill="none" xmlns="http://www.w3.org/2000/svg">
<path d="M7.90972 9.52173V4.74048M7.90972 4.74048L10.0347 6.86548M7.90972 4.74048L5.78472 6.86548M4.19097 11.6467C3.43265 11.6476 2.69888 11.378 2.12143 10.8865C1.54398 10.3949 1.16068 9.71364 1.04038 8.96493C0.92007 8.21621 1.07063 7.44913 1.46503 6.80145C1.85942 6.15376 2.47181 5.66789 3.19222 5.43111C3.00713 4.48277 3.19842 3.49963 3.72558 2.68987C4.25274 1.88011 5.07438 1.30733 6.01649 1.09282C6.95861 0.878302 7.94723 1.0389 8.773 1.5406C9.59878 2.0423 10.1969 2.84571 10.4406 3.78069C10.8174 3.65814 11.221 3.64339 11.6058 3.73812C11.9906 3.83285 12.3412 4.03329 12.6181 4.31679C12.895 4.60029 13.087 4.95556 13.1726 5.34247C13.2582 5.72938 13.2339 6.13252 13.1025 6.50636C13.6824 6.72786 14.1664 7.14535 14.4707 7.68641C14.775 8.22747 14.8802 8.85796 14.7682 9.46852C14.6563 10.0791 14.3341 10.6312 13.8576 11.029C13.3812 11.4269 12.7805 11.6454 12.1597 11.6467H4.19097Z" stroke="#F1F1F1" stroke-width="1.5" stroke-linecap="round" stroke-linejoin="round"/>
</svg>
