<svg width="18" height="21" viewBox="0 0 18 21" fill="none" xmlns="http://www.w3.org/2000/svg">
<path d="M17 5.01923C17 7.23882 13.4179 9.03846 9 9.03846C4.58206 9.03846 1 7.23882 1 5.01923M17 5.01923C17 2.79964 13.4179 1 9 1C4.58206 1 1 2.79964 1 5.01923M17 5.01923V15.9808C17 18.2004 13.4179 20 9 20C4.58206 20 1 18.2004 1 15.9808V5.01923M17 5.01923V8.67308M1 5.01923V8.67308M17 8.67308V12.3269C17 14.5465 13.4179 16.3462 9 16.3462C4.58206 16.3462 1 14.5465 1 12.3269V8.67308M17 8.67308C17 10.8927 13.4179 12.6923 9 12.6923C4.58206 12.6923 1 10.8927 1 8.67308" stroke="#7D7C81" stroke-width="1.5" stroke-linecap="round" stroke-linejoin="round"/>
</svg>
