<svg width="43" height="50" viewBox="0 0 43 50" fill="none" xmlns="http://www.w3.org/2000/svg">
<path d="M42 30.5385V24.0769C42 21.8736 41.0281 19.7605 39.2981 18.2025C37.568 16.6445 35.2216 15.7692 32.775 15.7692H28.675C27.8595 15.7692 27.0773 15.4775 26.5006 14.9581C25.924 14.4388 25.6 13.7344 25.6 13V9.30769C25.6 7.10436 24.6281 4.99126 22.8981 3.43327C21.168 1.87527 18.8216 1 16.375 1H11.25M17.4 1H4.075C2.3776 1 1 2.24062 1 3.76923V46.2308C1 47.7594 2.3776 49 4.075 49H38.925C40.6224 49 42 47.7594 42 46.2308V23.1538C42 17.2783 39.4082 11.6434 34.7948 7.48871C30.1814 3.33406 23.9243 1 17.4 1Z" stroke="#253143" stroke-linecap="round" stroke-linejoin="round"/>
<path d="M5.72301 32L3.22585 23.2727H5.24148L6.68608 29.3366H6.75852L8.35227 23.2727H10.0781L11.6676 29.3494H11.7443L13.1889 23.2727H15.2045L12.7074 32H10.9091L9.24716 26.294H9.17898L7.52131 32H5.72301ZM16.1921 32V23.2727H22.0728V24.794H18.0373V26.8736H21.7702V28.3949H18.0373V30.4787H22.0898V32H16.1921ZM23.5398 32V23.2727H27.0341C27.6761 23.2727 28.2116 23.3679 28.6406 23.5582C29.0696 23.7486 29.392 24.0128 29.608 24.3509C29.8239 24.6861 29.9318 25.0724 29.9318 25.5099C29.9318 25.8509 29.8636 26.1506 29.7273 26.4091C29.5909 26.6648 29.4034 26.875 29.1648 27.0398C28.929 27.2017 28.6591 27.3168 28.3551 27.3849V27.4702C28.6875 27.4844 28.9986 27.5781 29.2884 27.7514C29.581 27.9247 29.8182 28.1676 30 28.4801C30.1818 28.7898 30.2727 29.1591 30.2727 29.5881C30.2727 30.0511 30.1577 30.4645 29.9276 30.8281C29.7003 31.1889 29.3636 31.4744 28.9176 31.6847C28.4716 31.8949 27.9219 32 27.2685 32H23.5398ZM25.3849 30.4915H26.8892C27.4034 30.4915 27.7784 30.3935 28.0142 30.1974C28.25 29.9986 28.3679 29.7344 28.3679 29.4048C28.3679 29.1634 28.3097 28.9503 28.1932 28.7656C28.0767 28.581 27.9105 28.4361 27.6946 28.331C27.4815 28.2259 27.2273 28.1733 26.9318 28.1733H25.3849V30.4915ZM25.3849 26.9247H26.7528C27.0057 26.9247 27.2301 26.8807 27.4261 26.7926C27.625 26.7017 27.7813 26.5739 27.8949 26.4091C28.0114 26.2443 28.0696 26.0469 28.0696 25.8168C28.0696 25.5014 27.9574 25.2472 27.733 25.054C27.5114 24.8608 27.196 24.7642 26.7869 24.7642H25.3849V26.9247ZM31.4734 32V23.2727H34.9165C35.5785 23.2727 36.1424 23.3991 36.6083 23.652C37.0742 23.902 37.4293 24.25 37.6737 24.696C37.9208 25.1392 38.0444 25.6506 38.0444 26.2301C38.0444 26.8097 37.9194 27.321 37.6694 27.7642C37.4194 28.2074 37.0572 28.5526 36.5827 28.7997C36.1112 29.0469 35.5401 29.1705 34.8697 29.1705H32.6751V27.6918H34.5714C34.9265 27.6918 35.2191 27.6307 35.4492 27.5085C35.6822 27.3835 35.8555 27.2116 35.9691 26.9929C36.0856 26.7713 36.1438 26.517 36.1438 26.2301C36.1438 25.9403 36.0856 25.6875 35.9691 25.4716C35.8555 25.2528 35.6822 25.0838 35.4492 24.9645C35.2163 24.8423 34.9208 24.7812 34.5629 24.7812H33.3185V32H31.4734Z" fill="#253143"/>
</svg>
